<?xml version="1.0" standalone="no"?>
<!DOCTYPE svg PUBLIC "-//W3C//DTD SVG 20010904//EN"
 "http://www.w3.org/TR/2001/REC-SVG-20010904/DTD/svg10.dtd">
<svg version="1.0" xmlns="http://www.w3.org/2000/svg"
 width="64.000000pt" height="64.000000pt" viewBox="0 0 64.000000 64.000000"
 preserveAspectRatio="xMidYMid meet">

<g transform="translate(0.000000,64.000000) scale(0.100000,-0.100000)"
fill="#000000" stroke="none">
<path d="M183 615 c-61 -31 -127 -99 -156 -163 -17 -36 -22 -66 -21 -127 0
-94 21 -149 80 -214 52 -58 108 -88 190 -102 63 -11 76 -10 140 9 90 27 151
80 193 164 48 96 39 108 -46 62 -42 -22 -58 -25 -123 -22 -64 3 -82 8 -120 33
-24 17 -58 52 -75 79 -26 43 -30 59 -30 120 0 59 5 79 27 117 20 35 24 49 16
57 -16 16 -17 16 -75 -13z m-3 -86 c-58 -201 145 -406 343 -346 26 8 47 11 47
6 0 -21 -76 -90 -125 -114 -107 -53 -248 -26 -326 62 -103 117 -94 294 19 393
25 22 47 39 48 37 2 -2 -1 -19 -6 -38z"/>
</g>
</svg>
